#!OML:ASF X:\für Bonn\!DataBase\2005_08_12_Daniel\c3d\Daniel.ASF
:FULLY-SPECIFIED
:DEGREES
17
root -4.34024 16.9536 -1.10107 -71.7119 -89.4604 60.369
lowerback 20.4369 -2.04423 2.00918
upperback 1.68098 -2.59811 -2.13282
thorax -9.81328 -1.4304 -2.73732
lowerneck 8.46284 2.63429 -2.188
upperneck 5.75784 3.12045 0.298206
head 0.345107 1.43189 0.378208
rclavicle 1.07344e-014 7.15625e-015
rhumerus 59.0843 -9.39565 -129.119
rradius 6.13665
rwrist 93.9809
rhand -21.2235 6.34664
rfingers 7.12502
rthumb 5.15852 -23.5706
lclavicle 1.07344e-014 7.15625e-015
lhumerus 58.7415 4.96224 100.944
lradius 8.11361
lwrist -75.7119
lhand -13.866 4.55375
lfingers 7.12502
lthumb 12.2583 34.1745
rfemur 3.19176 -1.25741 15.1929
rtibia 30.0909
rfoot 334.734 -7.63461
rtoes -14.1226
lfemur -543.948 185.215 -196.667
ltibia 39.5293
lfoot -27.3457 2.88171
ltoes -2.01093
18
root -4.32657 16.92 -1.09694 -75.3748 -89.4522 63.8886
lowerback 20.8207 -2.04756 2.004
upperback 1.70494 -2.60435 -2.14498
thorax -9.99832 -1.43611 -2.73787
lowerneck 8.48236 2.63622 -2.2051
upperneck 5.65644 3.12283 0.336164
head 0.309844 1.43468 0.391625
rclavicle 1.36664e-014 2.82274e-014
rhumerus 59.1329 -9.28229 -128.958
rradius 6.17964
rwrist 93.7988
rhand -21.1305 6.29377
rfingers 7.12502
rthumb 5.24837 -23.6212
lclavicle 1.36664e-014 2.82274e-014
lhumerus 58.7864 4.91846 100.971
lradius 8.08542
lwrist -75.6166
lhand -13.6924 4.42234
lfingers 7.12502
lthumb 12.4257 34.033
rfemur 2.61922 -2.24814 14.7757
rtibia 31.1919
rfoot 334.91 -6.58951
rtoes -14.0309
lfemur -544.295 184.309 -196.412
ltibia 40.2457
lfoot -27.2989 1.96155
ltoes -2.00718
19
root -4.31245 16.8844 -1.09296 -80.3922 -89.4297 68.7606
lowerback 21.2149 -2.04559 1.97282
upperback 1.73903 -2.61054 -2.15943
thorax -10.1764 -1.44078 -2.72598
lowerneck 8.49068 2.63242 -2.20922
upperneck 5.52624 3.1204 0.355783
head 0.268098 1.43605 0.397396
rclavicle -8.18744e-015 -9.54166e-015
rhumerus 59.1975 -9.14904 -128.802
rradius 6.22598
rwrist 93.6724
rhand -21.0116 6.25853
rfingers 7.12502
rthumb 5.36317 -23.6536
lclavicle -8.18744e-015 -9.54166e-015
lhumerus 58.8478 4.89189 100.986
lradius 8.04325
lwrist -75.5519
lhand -13.4913 4.2426
lfingers 7.12502
lthumb 12.6196 33.8414
rfemur 2.01126 -3.23221 14.3387
rtibia 32.3748
rfoot 335.032 -5.54956
rtoes -13.8419
lfemur -544.667 183.367 -196.166
ltibia 41.0135
lfoot -27.2877 1.05917
ltoes -2.04916
20
root -4.29827 16.8456 -1.08872 -84.2268 -89.4138 72.4505
lowerback 21.6077 -2.04901 1.94893
upperback 1.77209 -2.62139 -2.16521
thorax -10.3546 -1.44765 -2.70731
lowerneck 8.54245 2.63513 -2.2424
upperneck 5.34957 3.12289 0.405848
head 0.203918 1.43975 0.416352
rclavicle -1.49585e-014 -7.15625e-015
rhumerus 59.2209 -9.00949 -128.639
rradius 6.32163
rwrist 93.5159
rhand -20.9041 6.25376
rfingers 7.12502
rthumb 5.46694 -23.6557
lclavicle -1.49585e-014 -7.15625e-015
lhumerus 58.8665 4.87396 101.009
lradius 8.06044
lwrist -75.5794
lhand -13.3053 4.01497
lfingers 7.12502
lthumb 12.7989 33.6026
rfemur 1.36593 -4.18177 13.9166
rtibia 33.6379
rfoot 335.111 -4.47839
rtoes -13.5545
lfemur -545.06 182.479 -195.922
ltibia 41.8308
lfoot -27.2894 0.167884
ltoes -1.99517
21
root -4.28319 16.8045 -1.08413 -88.3155 -89.3991 76.4042
lowerback 22.0078 -2.05415 1.95076
upperback 1.79907 -2.63033 -2.18805
thorax -10.5453 -1.4554 -2.72276
lowerneck 8.60992 2.64344 -2.2792
upperneck 5.15809 3.13176 0.490339
head 0.131662 1.44653 0.4461
rclavicle 9.03228e-015 1.19271e-015
rhumerus 59.2663 -8.88032 -128.502
rradius 6.41029
rwrist 93.3906
rhand -20.7303 6.28221
rfingers 7.12502
rthumb 5.63476 -23.6229
lclavicle 9.03228e-015 1.19271e-015
lhumerus 58.8595 4.85452 101
lradius 8.07183
lwrist -75.6884
lhand -13.2184 3.83613
lfingers 7.12502
lthumb 12.8826 33.4185
rfemur 0.665142 -5.13044 13.5054
rtibia 34.9879
rfoot 335.18 -3.47129
rtoes -13.3004
lfemur -545.49 181.576 -195.667
ltibia 42.7005
lfoot -27.311 -0.733022
ltoes -2.02458
22
root -4.26777 16.7603 -1.07991 -93.5363 -89.3687 81.5
lowerback 22.4056 -2.05493 1.89142
upperback 1.82745 -2.64502 -2.17759
thorax -10.7286 -1.46187 -2.66432
lowerneck 8.62096 2.65271 -2.34009
upperneck 4.99559 3.14255 0.511096
head 0.0780816 1.45395 0.461109
rclavicle -8.85834e-015 -1.43125e-014
rhumerus 59.2956 -8.72267 -128.311
rradius 6.45496
rwrist 93.2897
rhand -20.6337 6.28642
rfingers 7.12502
rthumb 5.72803 -23.6162
lclavicle -8.85834e-015 -1.43125e-014
lhumerus 58.8471 4.88758 101.03
lradius 8.12823
lwrist -75.864
lhand -13.1767 3.69003
lfingers 7.12502
lthumb 12.9229 33.2699
rfemur -0.0860246 -6.02112 13.0904
rtibia 36.4143
rfoot 335.177 -2.46257
rtoes -13.0307
lfemur -545.959 180.683 -195.429
ltibia 43.6302
lfoot -27.3593 -1.59788
ltoes -2.01075
23
root -4.25085 16.7101 -1.07537 -97.3756 -89.3508 85.2052
lowerback 22.8302 -2.05924 1.88576
upperback 1.84882 -2.65411 -2.19267
thorax -10.9374 -1.46921 -2.66631
lowerneck 8.63615 2.65361 -2.31733
upperneck 4.88523 3.14805 0.517834
head 0.0417021 1.45913 0.458486
rclavicle -1.60394e-014 3.57812e-015
rhumerus 59.3127 -8.60116 -128.157
rradius 6.5361
rwrist 93.0764
rhand -20.5381 6.33248
rfingers 7.12502
rthumb 5.82029 -23.5676
lclavicle -1.60394e-014 3.57812e-015
lhumerus 58.8164 4.8825 101.024
lradius 8.14715
lwrist -76.0951
lhand -13.2726 3.55764
lfingers 7.12502
lthumb 12.8304 33.1433
rfemur -0.877085 -7.03406 12.6482
rtibia 37.9224
rfoot 335.207 -1.34948
rtoes -12.7055
lfemur -546.46 179.813 -195.174
ltibia 44.6247
lfoot -27.4191 -2.49473
ltoes -1.98131
24
root -4.23435 16.656 -1.07109 -101.593 -89.3103 89.2867
lowerback 23.2346 -2.05524 1.86622
upperback 1.89597 -2.65872 -2.22055
thorax -11.1054 -1.47412 -2.67669
lowerneck 8.56624 2.65118 -2.32599
upperneck 4.82734 3.14852 0.564133
head 0.0339825 1.46083 0.474557
rclavicle 9.96408e-015 7.55382e-015
rhumerus 59.3733 -8.46595 -128.017
rradius 6.62439
rwrist 92.8284
rhand -20.421 6.40506
rfingers 7.12502
rthumb 5.93332 -23.4919
lclavicle 9.96408e-015 7.55382e-015
lhumerus 58.7983 4.85074 101.016
lradius 8.1996
lwrist -76.2995
lhand -13.4798 3.50495
lfingers 7.12502
lthumb 12.6307 33.1031
rfemur -1.69271 -8.01629 12.1827
rtibia 39.4944
rfoot 335.199 -0.207267
rtoes -12.3629
lfemur -546.984 178.98 -194.95
ltibia 45.6869
lfoot -27.521 -3.32759
ltoes -1.94436
25
root -4.21604 16.5967 -1.06605 -105.422 -89.285 92.9916
lowerback 23.6618 -2.05847 1.86385
upperback 1.92442 -2.66659 -2.23787
thorax -11.307 -1.48118 -2.68368
lowerneck 8.49087 2.65314 -2.29922
upperneck 4.84439 3.15638 0.572139
head 0.0516402 1.46553 0.473356
rclavicle -3.88873e-015 2.18663e-014
rhumerus 59.4095 -8.35252 -127.856
rradius 6.65905
rwrist 92.5507
rhand -20.4546 6.51692
rfingers 7.12502
rthumb 5.90095 -23.3809
lclavicle -3.88873e-015 2.18663e-014
lhumerus 58.7524 4.8383 101.012
lradius 8.27789
lwrist -76.538
lhand -13.7173 3.52565
lfingers 7.12502
lthumb 12.4017 33.1378
rfemur -2.56368 -8.93178 11.7555
rtibia 41.1365
rfoot 335.159 0.896939
rtoes -12.2075
lfemur -547.565 178.162 -194.708
ltibia 46.8149
lfoot -27.6296 -4.17609
ltoes -1.88134
26
root -4.1981 16.5335 -1.06186 -109.842 -89.2402 97.2743
lowerback 24.0888 -2.05258 1.82046
upperback 1.9646 -2.67221 -2.24001
thorax -11.4917 -1.48462 -2.65083
lowerneck 8.47815 2.66414 -2.31643
upperneck 4.79108 3.17158 0.564626
head 0.0368625 1.474 0.473327
rclavicle 1.77167e-014 3.97569e-016
rhumerus 59.4334 -8.18512 -127.689
rradius 6.7023
rwrist 92.2757
rhand -20.4847 6.65071
rfingers 7.12502
rthumb 5.8719 -23.2479
lclavicle 1.77167e-014 3.97569e-016
lhumerus 58.7119 4.85292 101.026
lradius 8.36647
lwrist -76.7493
lhand -14.0727 3.53174
lfingers 7.12502
lthumb 12.059 33.1643
rfemur -3.44345 -9.77904 11.3236
rtibia 42.8317
rfoot 335.117 1.97932
rtoes -12.0305
lfemur -548.157 177.371 -194.485
ltibia 48.0043
lfoot -27.7883 -4.98004
ltoes -1.86966
27
root -4.17939 16.4652 -1.05684 -113.413 -89.2073 100.71
lowerback 24.5124 -2.05292 1.81776
upperback 2.00896 -2.67774 -2.25867
thorax -11.6719 -1.49065 -2.66021
lowerneck 8.48122 2.66801 -2.34969
upperneck 4.75003 3.17416 0.618347
head 0.0219357 1.47523 0.494954
rclavicle 2.56556e-014 -5.96354e-015
rhumerus 59.4724 -8.05894 -127.532
rradius 6.75469
rwrist 91.9663
rhand -20.571 6.76713
rfingers 7.12502
rthumb 5.78858 -23.1338
lclavicle 2.56556e-014 -5.96354e-015
lhumerus 58.6884 4.83399 101.022
lradius 8.4588
lwrist -76.9262
lhand -14.4047 3.55107
lfingers 7.12502
lthumb 11.7389 33.2021
rfemur -4.35046 -10.5779 10.9153
rtibia 44.5727
rfoot 335.073 3.02861
rtoes -11.8088
lfemur -548.782 176.619 -194.257
ltibia 49.2556
lfoot -27.9958 -5.78604
ltoes -1.77613
28
root -4.16042 16.3934 -1.05214 -117.205 -89.1502 104.387
lowerback 24.9364 -2.0435 1.80002
upperback 2.03271 -2.67528 -2.2853
thorax -11.8747 -1.49253 -2.67281
lowerneck 8.52765 2.66628 -2.31381
upperneck 4.70856 3.174 0.604735
head 0.00251752 1.47611 0.484109
rclavicle 1.15916e-014 2.10712e-014
rhumerus 59.5128 -7.94813 -127.38
rradius 6.77372
rwrist 91.6607
rhand -20.6678 6.93075
rfingers 7.12502
rthumb 5.69507 -22.9727
lclavicle 1.15916e-014 2.10712e-014
lhumerus 58.6358 4.78821 101.026
lradius 8.57466
lwrist -77.0506
lhand -14.6963 3.67836
lfingers 7.12502
lthumb 11.4576 33.3453
rfemur -5.30685 -11.3164 10.4973
rtibia 46.3552
rfoot 335.058 4.08422
rtoes -11.6073
lfemur -549.458 175.887 -194.055
ltibia 50.5611
lfoot -28.2263 -6.53867
ltoes -1.73867
29
root -4.14082 16.317 -1.04793 -120.829 -89.1133 107.877
lowerback 25.365 -2.03889 1.80035
upperback 2.08151 -2.67456 -2.30646
thorax -12.0512 -1.49607 -2.68922
lowerneck 8.57263 2.67045 -2.30362
upperneck 4.63883 3.18007 0.617837
head -0.0265363 1.48009 0.485392
rclavicle -1.68967e-014 -1.03368e-014
rhumerus 59.575 -7.83578 -127.224
rradius 6.78847
rwrist 91.4394
rhand -20.8295 7.03784
rfingers 7.12502
rthumb 5.53901 -22.8698
lclavicle -1.68967e-014 -1.03368e-014
lhumerus 58.6368 4.74521 101.024
lradius 8.69101
lwrist -77.0844
lhand -14.9518 3.72235
lfingers 7.12502
lthumb 11.2112 33.4028
rfemur -6.24556 -11.9666 10.1225
rtibia 48.1627
rfoot 335.044 5.12911
rtoes -11.288
lfemur -550.15 175.179 -193.824
ltibia 51.9234
lfoot -28.499 -7.26435
ltoes -1.65072
